<svg width="10" height="11" viewBox="0 0 10 11" fill="none" xmlns="http://www.w3.org/2000/svg">
    <path
        d="M8.80302 3.98561V3.90249C8.80598 3.07079 8.5421 2.26006 8.05014 1.58944C7.55818 0.918831 6.86409 0.423698 6.06987 0.176805H6.04053C5.63034 0.0517517 5.20294 -0.00765407 4.77419 0.000788417C3.75321 0.0568166 2.79209 0.500358 2.087 1.24089C1.38191 1.98142 0.985988 2.96311 0.980052 3.98561C0.69354 4.0864 0.445381 4.27365 0.269832 4.52149C0.0942824 4.76934 0 5.06558 0 5.3693C0 5.67302 0.0942824 5.96925 0.269832 6.2171C0.445381 6.46495 0.69354 6.6522 0.980052 6.75299C1.08076 7.71853 1.53691 8.61212 2.25983 9.26004C2.98275 9.90795 3.92077 10.2639 4.89154 10.2587H5.00399C5.94273 10.2132 6.835 9.83663 7.52244 9.19575C8.20987 8.55486 8.64798 7.69113 8.75901 6.75788C9.0489 6.66279 9.30192 6.47968 9.48285 6.23404C9.66378 5.9884 9.76361 5.69246 9.76845 5.38742C9.7733 5.08238 9.6829 4.78342 9.50986 4.53216C9.33682 4.2809 9.08974 4.08985 8.80302 3.98561ZM4.97954 9.28078C4.27176 9.30126 3.58045 9.06505 3.03319 8.61573C2.48593 8.16642 2.11964 7.53433 2.00193 6.83611H7.7567C7.63737 7.4971 7.29806 8.09832 6.7939 8.54213C6.28974 8.98594 5.65033 9.24625 4.97954 9.28078ZM8.31408 5.85824H1.46899C1.33931 5.85824 1.21495 5.80672 1.12326 5.71503C1.03156 5.62334 0.980052 5.49897 0.980052 5.3693C0.980052 5.23963 1.03156 5.11526 1.12326 5.02357C1.21495 4.93188 1.33931 4.88036 1.46899 4.88036H2.44686C2.57653 4.88036 2.70089 4.82885 2.79259 4.73716C2.88428 4.64547 2.93579 4.5211 2.93579 4.39143C2.93579 4.26176 2.88428 4.13739 2.79259 4.0457C2.70089 3.95401 2.57653 3.90249 2.44686 3.90249H1.95792C1.97981 3.39528 2.12478 2.901 2.38032 2.46232C2.63587 2.02363 2.99431 1.65371 3.42473 1.38448V2.92462C3.42473 3.0543 3.47624 3.17866 3.56793 3.27035C3.65963 3.36205 3.78399 3.41356 3.91366 3.41356C4.04334 3.41356 4.1677 3.36205 4.25939 3.27035C4.35109 3.17866 4.4026 3.0543 4.4026 2.92462V1.01288C4.53531 0.990712 4.66917 0.976021 4.80353 0.968881H4.89154C5.05539 0.971188 5.21884 0.985898 5.38047 1.01288V2.92462C5.38047 3.0543 5.43198 3.17866 5.52368 3.27035C5.61537 3.36205 5.73973 3.41356 5.86941 3.41356C5.99908 3.41356 6.12344 3.36205 6.21514 3.27035C6.30683 3.17866 6.35834 3.0543 6.35834 2.92462V1.36981C6.56575 1.4899 6.75924 1.63256 6.93529 1.79518C7.21719 2.06894 7.44121 2.39653 7.59408 2.75853C7.74694 3.12053 7.82552 3.50955 7.82515 3.90249H7.33621C7.20654 3.90249 7.08218 3.95401 6.99048 4.0457C6.89879 4.13739 6.84728 4.26176 6.84728 4.39143C6.84728 4.5211 6.89879 4.64547 6.99048 4.73716C7.08218 4.82885 7.20654 4.88036 7.33621 4.88036H8.31408C8.44376 4.88036 8.56812 4.93188 8.65981 5.02357C8.75151 5.11526 8.80302 5.23963 8.80302 5.3693C8.80302 5.49897 8.75151 5.62334 8.65981 5.71503C8.56812 5.80672 8.44376 5.85824 8.31408 5.85824Z"
        fill="url(#paint0_linear_103_2300)" />
    <defs>
        <linearGradient id="paint0_linear_103_2300" x1="7" y1="9.5" x2="3" y2="-1"
            gradientUnits="userSpaceOnUse">
            <stop stop-color="#692F32" />
            <stop offset="0.229167" stop-color="#A7544F" />
            <stop offset="0.609818" stop-color="#EA7C6F" />
            <stop offset="0.96875" stop-color="#FBEBCF" />
        </linearGradient>
    </defs>
</svg>
    