<svg width="10" height="8" viewBox="0 0 10 8" fill="none" xmlns="http://www.w3.org/2000/svg">
    <path
        d="M4.88432 0C4.02693 2.17808e-05 3.18465 0.22573 2.44214 0.654438C1.69963 1.08315 1.08305 1.69975 0.65436 2.44228C0.225676 3.1848 -5.44533e-06 4.02709 0 4.88448C5.44553e-06 5.74186 0.225697 6.58415 0.654391 7.32667C0.719163 7.43937 0.826053 7.52173 0.951547 7.55562C1.07704 7.58951 1.21086 7.57216 1.32356 7.50739C1.43626 7.44262 1.51862 7.33573 1.55251 7.21024C1.5864 7.08474 1.56906 6.95093 1.50428 6.83822C1.15819 6.24531 0.976123 5.57098 0.976765 4.88444C0.976998 4.28521 1.11505 3.69406 1.38023 3.1567C1.64542 2.61934 2.03064 2.15017 2.50611 1.78547C2.98158 1.42076 3.53455 1.1703 4.12228 1.05344C4.71001 0.936575 5.31674 0.956451 5.89556 1.11153C6.47437 1.2666 7.00977 1.55272 7.46035 1.94776C7.91093 2.3428 8.26462 2.83618 8.49407 3.38974C8.72352 3.94331 8.82258 4.54223 8.7836 5.14019C8.74461 5.73815 8.56862 6.31914 8.26924 6.83822C8.23694 6.89397 8.216 6.95556 8.2076 7.01943C8.19921 7.08331 8.20354 7.14822 8.22034 7.21042C8.23713 7.27262 8.26607 7.33088 8.30548 7.38185C8.34489 7.43281 8.39399 7.47548 8.44996 7.50739C8.56212 7.57107 8.69491 7.58781 8.81936 7.55395C8.94381 7.52009 9.04981 7.43839 9.11425 7.32667C9.54294 6.58415 9.76864 5.74186 9.76864 4.88448C9.76865 4.02709 9.54296 3.1848 9.11428 2.44228C8.68559 1.69975 8.06901 1.08315 7.3265 0.654438C6.58399 0.22573 5.74171 2.17808e-05 4.88432 0ZM6.2715 2.81344L5.51441 3.56564C5.31844 3.46902 5.10282 3.41888 4.88432 3.41911C4.5945 3.41911 4.3112 3.50505 4.07022 3.66606C3.82925 3.82708 3.64144 4.05593 3.53053 4.32369C3.41962 4.59144 3.3906 4.88607 3.44714 5.17032C3.50368 5.45456 3.64324 5.71566 3.84817 5.92059C4.0531 6.12552 4.3142 6.26508 4.59845 6.32162C4.88269 6.37816 5.17732 6.34914 5.44508 6.23824C5.71283 6.12733 5.94169 5.93951 6.1027 5.69854C6.26371 5.45757 6.34965 5.17426 6.34965 4.88444C6.34931 4.66757 6.29918 4.45367 6.20312 4.25924L6.96021 3.50703C7.00599 3.46162 7.04233 3.4076 7.06713 3.34808C7.09192 3.28856 7.10469 3.22472 7.10469 3.16024C7.10469 3.09576 7.09192 3.03191 7.06713 2.97239C7.04233 2.91287 7.00599 2.85885 6.96021 2.81344C6.86869 2.72247 6.7449 2.6714 6.61586 2.6714C6.48682 2.6714 6.36302 2.72247 6.2715 2.81344ZM4.88432 5.37289C4.75478 5.37289 4.63054 5.32143 4.53894 5.22983C4.44734 5.13823 4.39588 5.01399 4.39588 4.88444C4.39588 4.7549 4.44734 4.63066 4.53894 4.53906C4.63054 4.44746 4.75478 4.396 4.88432 4.396C5.01177 4.39523 5.13447 4.44431 5.22623 4.53276C5.27297 4.57858 5.31003 4.63332 5.3352 4.69373C5.36037 4.75414 5.37315 4.819 5.37276 4.88444C5.37276 5.01399 5.3213 5.13823 5.2297 5.22983C5.1381 5.32143 5.01386 5.37289 4.88432 5.37289Z"
        fill="url(#paint0_linear_103_2294)" />
    <defs>
        <linearGradient id="paint0_linear_103_2294" x1="7" y1="7.01252" x2="4.68707" y2="-1.21257"
            gradientUnits="userSpaceOnUse">
            <stop stop-color="#692F32" />
            <stop offset="0.229167" stop-color="#A7544F" />
            <stop offset="0.609818" stop-color="#EA7C6F" />
            <stop offset="0.96875" stop-color="#FBEBCF" />
        </linearGradient>
    </defs>
</svg>
    