<svg width="10" height="10" viewBox="0 0 10 10" fill="none" xmlns="http://www.w3.org/2000/svg">
    <path
        d="M9.6058 6.61797L7.40273 4.41977C7.44883 4.19525 7.4717 3.96659 7.47096 3.7374C7.47079 3.10896 7.3122 2.49071 7.00985 1.93979C6.7075 1.38886 6.27114 0.923054 5.74111 0.58541C5.21108 0.247767 4.60449 0.0491872 3.97741 0.00802763C3.35032 -0.033132 2.72297 0.0844564 2.15336 0.349924C2.08119 0.382891 2.01817 0.432977 1.96975 0.495833C1.92133 0.558688 1.88899 0.632413 1.87554 0.710604C1.86214 0.787803 1.86754 0.867095 1.8913 0.94176C1.91506 1.01643 1.95646 1.08426 2.01201 1.13952L4.13223 3.25487L3.2549 4.1322L1.13956 2.01198C1.08383 1.95729 1.01578 1.9168 0.941139 1.89389C0.866497 1.87099 0.787445 1.86636 0.710638 1.88038C0.632937 1.89334 0.559535 1.92494 0.496719 1.97248C0.433903 2.02002 0.383545 2.08207 0.349958 2.15333C0.0836024 2.72481 -0.0338838 3.35438 0.00842817 3.98347C0.0507401 4.61256 0.251476 5.22073 0.591961 5.7514C0.932446 6.28207 1.40162 6.718 1.95584 7.01865C2.51005 7.31929 3.1313 7.47487 3.7618 7.47093C3.991 7.47167 4.21966 7.4488 4.44417 7.40269L6.64237 9.60577C6.68768 9.65145 6.74159 9.68771 6.80099 9.71246C6.86038 9.7372 6.92409 9.74994 6.98843 9.74994C7.05277 9.74994 7.11648 9.7372 7.17588 9.71246C7.23527 9.68771 7.28918 9.65145 7.33449 9.60577C7.38017 9.56046 7.41643 9.50655 7.44118 9.44716C7.46592 9.38776 7.47866 9.32405 7.47866 9.25971C7.47866 9.19537 7.46592 9.13166 7.44118 9.07227C7.41643 9.01287 7.38017 8.95896 7.33449 8.91365L4.9462 6.52536C4.88652 6.46607 4.8125 6.42324 4.73136 6.40104C4.65022 6.37883 4.56472 6.378 4.48316 6.39864C4.24783 6.46166 4.00542 6.49442 3.7618 6.49612C3.39725 6.49933 3.03566 6.43038 2.69786 6.29325C2.36007 6.15611 2.05275 5.95349 1.7936 5.69706C1.53446 5.44063 1.32861 5.13547 1.18792 4.79914C1.04722 4.46281 0.974467 4.10197 0.973838 3.7374C0.973206 3.57412 0.986249 3.41109 1.01283 3.24999L2.92346 5.1655C2.96877 5.21118 3.02268 5.24744 3.08208 5.27219C3.14147 5.29693 3.20518 5.30967 3.26952 5.30967C3.33386 5.30967 3.39757 5.29693 3.45697 5.27219C3.51636 5.24744 3.57027 5.21118 3.61558 5.1655L5.16553 3.60092C5.25338 3.51004 5.30249 3.38858 5.30249 3.26218C5.30249 3.13577 5.25338 3.01431 5.16553 2.92343L3.26952 1.0128C3.43065 0.986482 3.59367 0.973441 3.75693 0.973804C4.48903 0.975095 5.19071 1.26683 5.70793 1.78496C6.22515 2.3031 6.51565 3.00529 6.51565 3.7374C6.51395 3.98102 6.48119 4.22343 6.41817 4.45876C6.39753 4.54031 6.39836 4.62582 6.42057 4.70696C6.44278 4.7881 6.48561 4.86211 6.54489 4.92179L8.93318 7.31009C9.02496 7.40187 9.14944 7.45343 9.27924 7.45343C9.40904 7.45343 9.53352 7.40187 9.6253 7.31009C9.71708 7.2183 9.76864 7.09382 9.76864 6.96403C9.76864 6.83423 9.71708 6.70975 9.6253 6.61797H9.6058Z"
        fill="url(#paint0_linear_103_2288)" />
    <defs>
        <linearGradient id="paint0_linear_103_2288" x1="7" y1="9.02886" x2="3.34207" y2="-1.07426"
            gradientUnits="userSpaceOnUse">
            <stop stop-color="#692F32" />
            <stop offset="0.229167" stop-color="#A7544F" />
            <stop offset="0.609818" stop-color="#EA7C6F" />
            <stop offset="0.96875" stop-color="#FBEBCF" />
        </linearGradient>
    </defs>
</svg>
    